<svg xmlns="http://www.w3.org/2000/svg">
<symbol id="tv" viewBox="0 0 24 24"><rect x="2" y="4" width="20" height="13" rx="2"/><path d="M8 21h8M12 17v4"/></symbol>
<symbol id="streamer" viewBox="0 0 24 24"><rect x="3" y="7" width="18" height="10" rx="3"/><circle cx="16.5" cy="12" r="1"/><path d="M7 12h4"/></symbol>
<symbol id="speaker" viewBox="0 0 24 24"><rect x="5" y="2.5" width="14" height="19" rx="7"/><circle cx="12" cy="14.5" r="3"/><path d="M12 7.5h.01"/></symbol>
<symbol id="camera" viewBox="0 0 24 24"><rect x="7" y="2" width="10" height="20" rx="5"/><circle cx="12" cy="8" r="2.5"/><circle cx="12" cy="16" r="1.5"/></symbol>
<symbol id="vacuum" viewBox="0 0 24 24"><circle cx="12" cy="12" r="9"/><circle cx="12" cy="12" r="3"/><path d="M7.5 6.5h9"/></symbol>
<symbol id="plug" viewBox="0 0 24 24"><path d="M9 18h6M10 21h4M12 3a6 6 0 0 0-3.5 10.9c.6.5 1 1.2 1 2.1h5c0-.9.4-1.6 1-2.1A6 6 0 0 0 12 3z"/></symbol>
<symbol id="hub" viewBox="0 0 24 24"><rect x="4" y="4" width="16" height="16" rx="5"/><circle cx="12" cy="12" r="3.5"/></symbol>
<symbol id="appliance" viewBox="0 0 24 24"><rect x="5" y="2" width="14" height="20" rx="2"/><path d="M5 9h14M8 5.5h2M8 12.5v3"/></symbol>
<symbol id="console" viewBox="0 0 24 24"><path d="M6 8h12a4 4 0 0 1 4 4v1a3.5 3.5 0 0 1-6.3 2.1L15 14H9l-.7 1.1A3.5 3.5 0 0 1 2 13v-1a4 4 0 0 1 4-4z"/><path d="M7 10v3M5.5 11.5h3M16 11h.01M18 12.5h.01"/></symbol>
<symbol id="phone" viewBox="0 0 24 24"><rect x="6.5" y="2" width="11" height="20" rx="2.5"/><path d="M11 18.5h2"/></symbol>
<symbol id="computer" viewBox="0 0 24 24"><rect x="3.5" y="4" width="17" height="12" rx="1.5"/><path d="M1.5 20h21"/></symbol>
<symbol id="network" viewBox="0 0 24 24"><rect x="3" y="13" width="18" height="7" rx="2"/><path d="M7 16.5h.01M10.5 16.5h.01M8 13 6.5 6M16 13l1.5-7"/></symbol>
<symbol id="unknown" viewBox="0 0 24 24"><circle cx="12" cy="12" r="9"/><path d="M9.6 9.5a2.5 2.5 0 1 1 3.4 2.3c-.6.3-1 .8-1 1.5v.5M12 17h.01"/></symbol>
<symbol id="lock" viewBox="0 0 24 24"><rect x="5" y="11" width="14" height="10" rx="2"/><path d="M8 11V7.5a4 4 0 0 1 8 0V11"/></symbol>
<symbol id="warning" viewBox="0 0 24 24"><path d="M10.3 3.9 2.4 18a2 2 0 0 0 1.7 3h15.8a2 2 0 0 0 1.7-3L13.7 3.9a2 2 0 0 0-3.4 0zM12 9v4M12 17h.01"/></symbol>
<symbol id="pulse" viewBox="0 0 24 24"><path d="M3 12h4l2-5 4 10 2-5h6"/></symbol>
<symbol id="pencil" viewBox="0 0 24 24"><path d="M4 20h4L19 9a2.8 2.8 0 0 0-4-4L4 16zM13.5 6.5l4 4"/></symbol>
<symbol id="receipt" viewBox="0 0 24 24"><path d="M6 2.5h12v19l-3-2-3 2-3-2-3 2zM9 7h6M9 11h6M9 15h3.5"/></symbol>
<symbol id="close" viewBox="0 0 24 24"><path d="M6 6l12 12M18 6 6 18"/></symbol>
<symbol id="download" viewBox="0 0 24 24"><path d="M12 3v12M7 10l5 5 5-5M4 21h16"/></symbol>
<symbol id="copy" viewBox="0 0 24 24"><rect x="8" y="8" width="12" height="12" rx="2"/><path d="M16 8V5a1 1 0 0 0-1-1H5a1 1 0 0 0-1 1v10a1 1 0 0 0 1 1h3"/></symbol>
<symbol id="external" viewBox="0 0 24 24"><path d="M14 4h6v6M20 4l-9 9M18 14v5a1 1 0 0 1-1 1H5a1 1 0 0 1-1-1V7a1 1 0 0 1 1-1h5"/></symbol>
<symbol id="moon" viewBox="0 0 24 24"><path d="M20 14.5A8 8 0 1 1 9.5 4a6.5 6.5 0 0 0 10.5 10.5z"/></symbol>
<symbol id="arrow" viewBox="0 0 24 24"><path d="M5 12h14M13 6l6 6-6 6"/></symbol>
<symbol id="info" viewBox="0 0 24 24"><circle cx="12" cy="12" r="9"/><path d="M12 8h.01M11 12h1v5h1"/></symbol>
</svg>
